<svg width="34" height="34" viewBox="0 0 34 34" fill="none" xmlns="http://www.w3.org/2000/svg">
<path d="M17 0.5C7.88833 0.5 0.5 7.88833 0.5 17C0.5 26.1117 7.88833 33.5 17 33.5C18.5217 33.5 19.75 32.2717 19.75 30.75C19.75 30.035 19.475 29.3933 19.035 28.8983C18.6133 28.4217 18.3383 27.78 18.3383 27.0833C18.3383 25.5617 19.5667 24.3333 21.0883 24.3333H24.3333C29.3933 24.3333 33.5 20.2267 33.5 15.1667C33.5 7.06333 26.1117 0.5 17 0.5ZM6.91667 17C5.395 17 4.16667 15.7717 4.16667 14.25C4.16667 12.7283 5.395 11.5 6.91667 11.5C8.43833 11.5 9.66667 12.7283 9.66667 14.25C9.66667 15.7717 8.43833 17 6.91667 17ZM12.4167 9.66667C10.895 9.66667 9.66667 8.43833 9.66667 6.91667C9.66667 5.395 10.895 4.16667 12.4167 4.16667C13.9383 4.16667 15.1667 5.395 15.1667 6.91667C15.1667 8.43833 13.9383 9.66667 12.4167 9.66667ZM21.5833 9.66667C20.0617 9.66667 18.8333 8.43833 18.8333 6.91667C18.8333 5.395 20.0617 4.16667 21.5833 4.16667C23.105 4.16667 24.3333 5.395 24.3333 6.91667C24.3333 8.43833 23.105 9.66667 21.5833 9.66667ZM27.0833 17C25.5617 17 24.3333 15.7717 24.3333 14.25C24.3333 12.7283 25.5617 11.5 27.0833 11.5C28.605 11.5 29.8333 12.7283 29.8333 14.25C29.8333 15.7717 28.605 17 27.0833 17Z" fill="url(#paint0_linear_23_53)"/>
<defs>
<linearGradient id="paint0_linear_23_53" x1="33.5" y1="33.5802" x2="0.5" y2="0.580165" gradientUnits="userSpaceOnUse">
<stop stop-color="#13B156"/>
<stop offset="1" stop-color="#32CB73"/>
</linearGradient>
</defs>
</svg>
