<svg width="16" height="16" viewBox="0 0 16 16" fill="none" xmlns="http://www.w3.org/2000/svg">
<path d="M15 7H3.83L8.71 2.12C9.1 1.73 9.1 1.09 8.71 0.699999C8.32 0.309999 7.69 0.309999 7.3 0.699999L0.71 7.29C0.32 7.68 0.32 8.31 0.71 8.7L7.3 15.29C7.69 15.68 8.32 15.68 8.71 15.29C9.1 14.9 9.1 14.27 8.71 13.88L3.83 9H15C15.55 9 16 8.55 16 8C16 7.45 15.55 7 15 7Z" fill="url(#paint0_linear_23_433)"/>
<defs>
<linearGradient id="paint0_linear_23_433" x1="16" y1="15.6194" x2="0.830326" y2="0.0423333" gradientUnits="userSpaceOnUse">
<stop stop-color="#13B156"/>
<stop offset="1" stop-color="#32CB73"/>
</linearGradient>
</defs>
</svg>
