<svg width="16" height="17" viewBox="0 0 16 17" fill="none" xmlns="http://www.w3.org/2000/svg">
<path d="M13 11.9001C12.3667 11.9001 11.8 12.1501 11.3667 12.5417L5.425 9.08342C5.46667 8.89175 5.5 8.70008 5.5 8.50008C5.5 8.30008 5.46667 8.10842 5.425 7.91675L11.3 4.49175C11.75 4.90841 12.3417 5.16675 13 5.16675C14.3833 5.16675 15.5 4.05008 15.5 2.66675C15.5 1.28341 14.3833 0.166748 13 0.166748C11.6167 0.166748 10.5 1.28341 10.5 2.66675C10.5 2.86675 10.5333 3.05841 10.575 3.25008L4.7 6.67508C4.25 6.25842 3.65833 6.00008 3 6.00008C1.61667 6.00008 0.5 7.11675 0.5 8.50008C0.5 9.88342 1.61667 11.0001 3 11.0001C3.65833 11.0001 4.25 10.7417 4.7 10.3251L10.6333 13.7917C10.5917 13.9667 10.5667 14.1501 10.5667 14.3334C10.5667 15.6751 11.6583 16.7667 13 16.7667C14.3417 16.7667 15.4333 15.6751 15.4333 14.3334C15.4333 12.9917 14.3417 11.9001 13 11.9001Z" fill="url(#paint0_linear_168_3915)"/>
<defs>
<linearGradient id="paint0_linear_168_3915" x1="15.5" y1="16.8071" x2="-1.0151" y2="1.88379" gradientUnits="userSpaceOnUse">
<stop stop-color="#13B156"/>
<stop offset="1" stop-color="#32CB73"/>
</linearGradient>
</defs>
</svg>
