<svg width="40" height="32" viewBox="0 0 40 32" fill="none" xmlns="http://www.w3.org/2000/svg">
<path d="M6.16666 18.1633V23.315C6.16666 24.6533 6.89999 25.9 8.07333 26.5417L17.24 31.5467C18.34 32.1517 19.66 32.1517 20.76 31.5467L29.9267 26.5417C31.1 25.9 31.8333 24.6533 31.8333 23.315V18.1633L20.76 24.2133C19.66 24.8183 18.34 24.8183 17.24 24.2133L6.16666 18.1633ZM17.24 0.453336L1.78499 8.88667C0.519993 9.58334 0.519993 11.4167 1.78499 12.1133L17.24 20.5467C18.34 21.1517 19.66 21.1517 20.76 20.5467L35.5 12.4983V23.3333C35.5 24.3417 36.325 25.1667 37.3333 25.1667C38.3417 25.1667 39.1667 24.3417 39.1667 23.3333V11.5817C39.1667 10.9033 38.8 10.2983 38.2133 9.96834L20.76 0.453336C19.66 -0.13333 18.34 -0.13333 17.24 0.453336Z" fill="white"/>
</svg>
