<svg width="20" height="16" viewBox="0 0 20 16" fill="none" xmlns="http://www.w3.org/2000/svg">
<path d="M17.999 0H1.99902C0.899023 0 -0.000976562 0.9 -0.000976562 2V14C-0.000976562 15.1 0.899023 16 1.99902 16H17.999C19.099 16 19.999 15.1 19.999 14V2C19.999 0.9 19.099 0 17.999 0ZM17.599 4.25L11.059 8.34C10.409 8.75 9.58902 8.75 8.93902 8.34L2.39902 4.25C2.14902 4.09 1.99902 3.82 1.99902 3.53C1.99902 2.86 2.72902 2.46 3.29902 2.81L9.99902 7L16.699 2.81C17.269 2.46 17.999 2.86 17.999 3.53C17.999 3.82 17.849 4.09 17.599 4.25Z" fill="#858C94"/>
</svg>
