<svg width="38" height="38" viewBox="0 0 38 38" fill="none" xmlns="http://www.w3.org/2000/svg">
<path d="M37.645 13.8117C37.645 6.64334 31.7967 0.868337 24.61 0.978337C17.5883 1.08834 11.795 7.15667 11.9967 14.16C12.1617 20.3567 16.7267 25.4533 22.685 26.4433V33.6667H7.99999V28.1667H8.91666C9.42999 28.1667 9.83332 27.7633 9.83332 27.25V20.8333C9.83332 19.825 9.00832 19 7.99999 19H2.49999C1.49166 19 0.666656 19.825 0.666656 20.8333V27.25C0.666656 27.7633 1.06999 28.1667 1.58332 28.1667H2.49999V35.5C2.49999 36.5083 3.32499 37.3333 4.33332 37.3333H30C31.0083 37.3333 31.8333 36.5083 31.8333 35.5C31.8333 34.4917 31.0083 33.6667 30 33.6667H26.3333V26.5533C32.695 25.8017 37.645 20.3933 37.645 13.8117Z" fill="url(#paint0_linear_168_1301)"/>
<defs>
<linearGradient id="paint0_linear_168_1301" x1="37.645" y1="37.4217" x2="1.29367" y2="0.448642" gradientUnits="userSpaceOnUse">
<stop stop-color="#13B156"/>
<stop offset="1" stop-color="#32CB73"/>
</linearGradient>
</defs>
</svg>
