<svg width="24" height="24" viewBox="0 0 24 24" fill="none" xmlns="http://www.w3.org/2000/svg">
<path d="M11.9053 14.625C12.6015 14.625 13.2692 14.3484 13.7615 13.8561C14.2537 13.3638 14.5303 12.6961 14.5303 12C14.5303 11.9231 14.5268 11.8469 14.5202 11.7717L11.677 14.6149C11.7523 14.6214 11.8282 14.625 11.9053 14.625ZM20.5941 3.88026L19.5928 2.87995C19.5576 2.84481 19.51 2.82507 19.4603 2.82507C19.4106 2.82507 19.3629 2.84481 19.3277 2.87995L16.7655 5.44284C15.3521 4.7205 13.7633 4.35932 11.999 4.35932C7.49436 4.35932 4.13341 6.70542 1.91622 11.3976C1.8271 11.5863 1.78088 11.7924 1.78088 12.0011C1.78088 12.2098 1.8271 12.4159 1.91622 12.6046C2.80216 14.4707 3.86896 15.9664 5.11662 17.0918L2.63716 19.5703C2.60203 19.6054 2.58229 19.6531 2.58229 19.7028C2.58229 19.7525 2.60203 19.8002 2.63716 19.8354L3.63771 20.8359C3.67287 20.871 3.72054 20.8908 3.77025 20.8908C3.81996 20.8908 3.86763 20.871 3.90279 20.8359L20.5941 4.14557C20.6115 4.12816 20.6253 4.10748 20.6348 4.08472C20.6442 4.06196 20.649 4.03756 20.649 4.01292C20.649 3.98828 20.6442 3.96388 20.6348 3.94112C20.6253 3.91835 20.6115 3.89767 20.5941 3.88026ZM7.78029 12C7.78023 11.2875 7.96471 10.5871 8.31576 9.96711C8.66682 9.34712 9.17248 8.82862 9.78348 8.46213C10.3945 8.09564 11.09 7.89366 11.8023 7.87586C12.5145 7.85807 13.2193 8.02506 13.8478 8.36058L12.7083 9.50011C12.2487 9.35296 11.7575 9.33524 11.2885 9.44889C10.8195 9.56254 10.3909 9.80317 10.0497 10.1444C9.70851 10.4856 9.46788 10.9142 9.35423 11.3832C9.24058 11.8521 9.2583 12.3434 9.40545 12.8029L8.26592 13.9425C7.94614 13.345 7.7793 12.6776 7.78029 12Z" fill="#858C94"/>
<path d="M22.0818 11.3953C21.2568 9.65779 20.2749 8.24099 19.136 7.1449L15.7577 10.5234C16.0425 11.2678 16.1056 12.0788 15.9394 12.8583C15.7733 13.6378 15.3849 14.3525 14.8214 14.9161C14.2578 15.4797 13.5431 15.868 12.7636 16.0342C11.9841 16.2003 11.1731 16.1372 10.4287 15.8524L7.56323 18.7179C8.89261 19.3331 10.3712 19.6406 11.999 19.6406C16.5037 19.6406 19.8646 17.2945 22.0818 12.6023C22.171 12.4136 22.2172 12.2075 22.2172 11.9988C22.2172 11.7901 22.171 11.584 22.0818 11.3953Z" fill="#858C94"/>
</svg>
