<svg width="32" height="32" viewBox="0 0 32 32" fill="none" xmlns="http://www.w3.org/2000/svg">
<g clip-path="url(#clip0_1_4213)">
<path d="M16.0001 32C24.8366 32 32.0001 24.8366 32.0001 16C32.0001 7.16345 24.8366 0 16.0001 0C7.16351 0 6.10352e-05 7.16345 6.10352e-05 16C6.10352e-05 24.8366 7.16351 32 16.0001 32Z" fill="#3C5A9A"/>
<path d="M21.2025 4.91125H17.6581C15.5547 4.91125 13.2152 5.7959 13.2152 8.84481C13.2254 9.90717 13.2152 10.9246 13.2152 12.0696H10.7819V15.9417H13.2905V27.0889H17.9002V15.8682H20.9427L21.218 12.0588H17.8207C17.8207 12.0588 17.8283 10.3642 17.8207 9.87207C17.8207 8.66721 19.0744 8.73621 19.1498 8.73621C19.7464 8.73621 20.9064 8.73794 21.2042 8.73621V4.91125H21.2025Z" fill="white"/>
</g>
<defs>
<clipPath id="clip0_1_4213">
<rect width="32" height="32" fill="white"/>
</clipPath>
</defs>
</svg>
