<svg width="31" height="32" viewBox="0 0 31 32" fill="none" xmlns="http://www.w3.org/2000/svg">
<path d="M30.9837 16.2994C30.9837 14.9884 30.8782 14.0317 30.65 13.0396H15.8088V18.9569H24.5202C24.3446 20.4274 23.3962 22.642 21.2886 24.1301L21.259 24.3282L25.9515 27.9952L26.2766 28.0279C29.2624 25.2463 30.9837 21.1537 30.9837 16.2994" fill="#4285F4"/>
<path d="M15.8088 31.8901C20.0767 31.8901 23.6596 30.4727 26.2767 28.0279L21.2886 24.1301C19.9538 25.0691 18.1623 25.7246 15.8088 25.7246C11.6287 25.7246 8.0809 22.9432 6.81621 19.0986L6.63083 19.1145L1.75149 22.9236L1.68768 23.1025C4.28706 28.3112 9.62639 31.8901 15.8088 31.8901Z" fill="#34A853"/>
<path d="M6.81634 19.0986C6.48264 18.1065 6.28952 17.0434 6.28952 15.945C6.28952 14.8465 6.48264 13.7836 6.79879 12.7914L6.78995 12.5801L1.84947 8.70984L1.68783 8.7874C0.6165 10.9489 0.00177002 13.3761 0.00177002 15.945C0.00177002 18.5139 0.6165 20.941 1.68783 23.1025L6.81634 19.0986" fill="#FBBC05"/>
<path d="M15.8088 6.16537C18.777 6.16537 20.7792 7.45869 21.9208 8.53948L26.382 4.14571C23.6421 1.57679 20.0767 0 15.8088 0C9.62638 0 4.28706 3.57875 1.68768 8.78742L6.79864 12.7914C8.0809 8.94693 11.6287 6.16537 15.8088 6.16537" fill="#EB4335"/>
</svg>
