<svg width="48" height="40" viewBox="0 0 48 40" fill="none" xmlns="http://www.w3.org/2000/svg">
<rect width="48" height="40" rx="12" fill="url(#paint0_linear_168_3944)"/>
<path d="M22 27V22H26V27C26 27.55 26.45 28 27 28H30C30.55 28 31 27.55 31 27V20H32.7C33.16 20 33.38 19.43 33.03 19.13L24.67 11.6C24.29 11.26 23.71 11.26 23.33 11.6L14.97 19.13C14.63 19.43 14.84 20 15.3 20H17V27C17 27.55 17.45 28 18 28H21C21.55 28 22 27.55 22 27Z" fill="white"/>
<defs>
<linearGradient id="paint0_linear_168_3944" x1="48" y1="40.0972" x2="8.65574" y2="-7.11594" gradientUnits="userSpaceOnUse">
<stop stop-color="#13B156"/>
<stop offset="1" stop-color="#32CB73"/>
</linearGradient>
</defs>
</svg>
