<svg width="42" height="26" viewBox="0 0 42 26" fill="none" xmlns="http://www.w3.org/2000/svg">
<path d="M28.3333 11.1667C31.3767 11.1667 33.815 8.71002 33.815 5.66669C33.815 2.62335 31.3767 0.166687 28.3333 0.166687C25.29 0.166687 22.8333 2.62335 22.8333 5.66669C22.8333 8.71002 25.29 11.1667 28.3333 11.1667ZM13.6667 11.1667C16.71 11.1667 19.1483 8.71002 19.1483 5.66669C19.1483 2.62335 16.71 0.166687 13.6667 0.166687C10.6233 0.166687 8.16668 2.62335 8.16668 5.66669C8.16668 8.71002 10.6233 11.1667 13.6667 11.1667ZM13.6667 14.8334C9.39501 14.8334 0.833344 16.9784 0.833344 21.25V24C0.833344 25.0084 1.65834 25.8334 2.66668 25.8334H24.6667C25.675 25.8334 26.5 25.0084 26.5 24V21.25C26.5 16.9784 17.9383 14.8334 13.6667 14.8334ZM28.3333 14.8334C27.8017 14.8334 27.1967 14.87 26.555 14.925C26.5917 14.9434 26.61 14.98 26.6283 14.9984C28.7183 16.52 30.1667 18.555 30.1667 21.25V24C30.1667 24.6417 30.0383 25.265 29.8367 25.8334H39.3333C40.3417 25.8334 41.1667 25.0084 41.1667 24V21.25C41.1667 16.9784 32.605 14.8334 28.3333 14.8334Z" fill="url(#paint0_linear_23_24)"/>
<defs>
<linearGradient id="paint0_linear_23_24" x1="41.1667" y1="25.8957" x2="17.9157" y2="-10.6415" gradientUnits="userSpaceOnUse">
<stop stop-color="#13B156"/>
<stop offset="1" stop-color="#32CB73"/>
</linearGradient>
</defs>
</svg>
