<svg width="34" height="35" viewBox="0 0 34 35" fill="none" xmlns="http://www.w3.org/2000/svg">
<path d="M22.5 16.1666V6.68832C22.5 5.71665 22.115 4.78165 21.4183 4.10332L18.2833 0.968318C17.5683 0.253318 16.4133 0.253318 15.6983 0.968318L12.5817 4.08498C11.885 4.78165 11.5 5.71665 11.5 6.68832V8.83332H4.16667C2.15 8.83332 0.5 10.4833 0.5 12.5V30.8333C0.5 32.85 2.15 34.5 4.16667 34.5H29.8333C31.85 34.5 33.5 32.85 33.5 30.8333V19.8333C33.5 17.8167 31.85 16.1666 29.8333 16.1666H22.5ZM7.83333 30.8333H4.16667V27.1666H7.83333V30.8333ZM7.83333 23.5H4.16667V19.8333H7.83333V23.5ZM7.83333 16.1666H4.16667V12.5H7.83333V16.1666ZM18.8333 30.8333H15.1667V27.1666H18.8333V30.8333ZM18.8333 23.5H15.1667V19.8333H18.8333V23.5ZM18.8333 16.1666H15.1667V12.5H18.8333V16.1666ZM18.8333 8.83332H15.1667V5.16665H18.8333V8.83332ZM29.8333 30.8333H26.1667V27.1666H29.8333V30.8333ZM29.8333 23.5H26.1667V19.8333H29.8333V23.5Z" fill="url(#paint0_linear_23_134)"/>
<defs>
<linearGradient id="paint0_linear_23_134" x1="33.5" y1="34.5827" x2="-0.550646" y2="1.59947" gradientUnits="userSpaceOnUse">
<stop stop-color="#13B156"/>
<stop offset="1" stop-color="#32CB73"/>
</linearGradient>
</defs>
</svg>
