<svg width="36" height="36" viewBox="0 0 36 36" fill="none" xmlns="http://www.w3.org/2000/svg">
<rect width="36" height="36" rx="18" fill="url(#paint0_linear_168_474)"/>
<path d="M21.4152 14.8142C22.1385 14.8142 22.8321 14.5269 23.3436 14.0155C23.855 13.504 24.1423 12.8104 24.1423 12.0871C24.1423 11.3638 23.855 10.6702 23.3436 10.1587C22.8321 9.64731 22.1385 9.35999 21.4152 9.35999C20.6919 9.35999 19.9983 9.64731 19.4868 10.1587C18.9754 10.6702 18.6881 11.3638 18.6881 12.0871C18.6881 12.8104 18.9754 13.504 19.4868 14.0155C19.9983 14.5269 20.6919 14.8142 21.4152 14.8142ZM27.7912 13.5739C23.886 16.3611 22.0872 15.8735 20.3244 15.8178C19.1048 15.7556 18.6881 16.1429 18.6881 16.9959L18.6892 23.541C18.6892 28.9953 27.8752 27.2827 24.3234 18.1424C26.1462 17.0963 27.6789 15.4873 28.5515 14.4204C28.9999 13.7572 28.521 13.0623 27.7912 13.5739ZM14.8701 9.35999C14.1468 9.35999 13.4532 9.64731 12.9417 10.1587C12.4303 10.6702 12.143 11.3638 12.143 12.0871C12.143 12.8104 12.4303 13.504 12.9417 14.0155C13.4532 14.5269 14.1468 14.8142 14.8701 14.8142C15.5934 14.8142 16.287 14.5269 16.7985 14.0155C17.3099 13.504 17.5972 12.8104 17.5972 12.0871C17.5972 11.3638 17.3099 10.6702 16.7985 10.1587C16.287 9.64731 15.5934 9.35999 14.8701 9.35999ZM15.9609 15.8178C14.1981 15.8735 12.3993 16.3611 8.49407 13.5739C7.7643 13.0623 7.28541 13.7572 7.73375 14.4194C8.60643 15.4873 10.1391 17.0952 11.9619 18.1413C8.41008 27.2816 17.5961 28.9942 17.5961 23.54L17.5972 16.9949C17.5972 16.1429 17.1805 15.7556 15.9609 15.8178Z" fill="white"/>
<defs>
<linearGradient id="paint0_linear_168_474" x1="36" y1="36.0875" x2="0" y2="0.0874529" gradientUnits="userSpaceOnUse">
<stop stop-color="#13B156"/>
<stop offset="1" stop-color="#32CB73"/>
</linearGradient>
</defs>
</svg>
