<svg width="38" height="38" viewBox="0 0 38 38" fill="none" xmlns="http://www.w3.org/2000/svg">
<path d="M33.6667 7.99999H26.3333V4.33332C26.3333 2.31666 24.6833 0.666656 22.6667 0.666656H15.3333C13.3167 0.666656 11.6667 2.31666 11.6667 4.33332V7.99999H4.33332C2.31666 7.99999 0.666656 9.64999 0.666656 11.6667V33.6667C0.666656 35.6833 2.31666 37.3333 4.33332 37.3333H33.6667C35.6833 37.3333 37.3333 35.6833 37.3333 33.6667V11.6667C37.3333 9.64999 35.6833 7.99999 33.6667 7.99999ZM15.3333 4.33332H22.6667V7.99999H15.3333V4.33332ZM24.5 24.5H20.8333V28.1667C20.8333 29.175 20.0083 30 19 30C17.9917 30 17.1667 29.175 17.1667 28.1667V24.5H13.5C12.4917 24.5 11.6667 23.675 11.6667 22.6667C11.6667 21.6583 12.4917 20.8333 13.5 20.8333H17.1667V17.1667C17.1667 16.1583 17.9917 15.3333 19 15.3333C20.0083 15.3333 20.8333 16.1583 20.8333 17.1667V20.8333H24.5C25.5083 20.8333 26.3333 21.6583 26.3333 22.6667C26.3333 23.675 25.5083 24.5 24.5 24.5Z" fill="white"/>
</svg>
