<svg width="48" height="40" viewBox="0 0 48 40" fill="none" xmlns="http://www.w3.org/2000/svg">
<rect width="48" height="40" rx="12" fill="#13B156" fill-opacity="0.1"/>
<path d="M16 22H18C18.55 22 19 21.55 19 21V19C19 18.45 18.55 18 18 18H16C15.45 18 15 18.45 15 19V21C15 21.55 15.45 22 16 22ZM16 27H18C18.55 27 19 26.55 19 26V24C19 23.45 18.55 23 18 23H16C15.45 23 15 23.45 15 24V26C15 26.55 15.45 27 16 27ZM16 17H18C18.55 17 19 16.55 19 16V14C19 13.45 18.55 13 18 13H16C15.45 13 15 13.45 15 14V16C15 16.55 15.45 17 16 17ZM21 22H31C31.55 22 32 21.55 32 21V19C32 18.45 31.55 18 31 18H21C20.45 18 20 18.45 20 19V21C20 21.55 20.45 22 21 22ZM21 27H31C31.55 27 32 26.55 32 26V24C32 23.45 31.55 23 31 23H21C20.45 23 20 23.45 20 24V26C20 26.55 20.45 27 21 27ZM20 14V16C20 16.55 20.45 17 21 17H31C31.55 17 32 16.55 32 16V14C32 13.45 31.55 13 31 13H21C20.45 13 20 13.45 20 14Z" fill="url(#paint0_linear_168_3954)"/>
<defs>
<linearGradient id="paint0_linear_168_3954" x1="32" y1="27.034" x2="18.2598" y2="10.3495" gradientUnits="userSpaceOnUse">
<stop stop-color="#13B156"/>
<stop offset="1" stop-color="#32CB73"/>
</linearGradient>
</defs>
</svg>
