<svg width="48" height="40" viewBox="0 0 48 40" fill="none" xmlns="http://www.w3.org/2000/svg">
<rect width="48" height="40" rx="12" fill="#13B156" fill-opacity="0.1"/>
<path d="M32 10H16C14.9 10 14.01 10.9 14.01 12L14 30L18 26H32C33.1 26 34 25.1 34 24V12C34 10.9 33.1 10 32 10ZM29 22H19C18.45 22 18 21.55 18 21C18 20.45 18.45 20 19 20H29C29.55 20 30 20.45 30 21C30 21.55 29.55 22 29 22ZM29 19H19C18.45 19 18 18.55 18 18C18 17.45 18.45 17 19 17H29C29.55 17 30 17.45 30 18C30 18.55 29.55 19 29 19ZM29 16H19C18.45 16 18 15.55 18 15C18 14.45 18.45 14 19 14H29C29.55 14 30 14.45 30 15C30 15.55 29.55 16 29 16Z" fill="url(#paint0_linear_168_3959)"/>
<defs>
<linearGradient id="paint0_linear_168_3959" x1="34" y1="30.0486" x2="14" y2="10.0486" gradientUnits="userSpaceOnUse">
<stop stop-color="#13B156"/>
<stop offset="1" stop-color="#32CB73"/>
</linearGradient>
</defs>
</svg>
