<svg width="38" height="36" viewBox="0 0 38 36" fill="none" xmlns="http://www.w3.org/2000/svg">
<path d="M33.6667 8.00002H29.67C29.8717 7.43169 30 6.80835 30 6.16669C30 3.12335 27.5433 0.666687 24.5 0.666687C22.575 0.666687 20.9067 1.65669 19.9167 3.14169L19 4.37002L18.0833 3.12335C17.0933 1.65669 15.425 0.666687 13.5 0.666687C10.4567 0.666687 8.00001 3.12335 8.00001 6.16669C8.00001 6.80835 8.12834 7.43169 8.33001 8.00002H4.33334C2.29834 8.00002 0.685005 9.63169 0.685005 11.6667L0.666672 31.8334C0.666672 33.8684 2.29834 35.5 4.33334 35.5H33.6667C35.7017 35.5 37.3333 33.8684 37.3333 31.8334V11.6667C37.3333 9.63169 35.7017 8.00002 33.6667 8.00002ZM24.5 4.33335C25.5083 4.33335 26.3333 5.15835 26.3333 6.16669C26.3333 7.17502 25.5083 8.00002 24.5 8.00002C23.4917 8.00002 22.6667 7.17502 22.6667 6.16669C22.6667 5.15835 23.4917 4.33335 24.5 4.33335ZM13.5 4.33335C14.5083 4.33335 15.3333 5.15835 15.3333 6.16669C15.3333 7.17502 14.5083 8.00002 13.5 8.00002C12.4917 8.00002 11.6667 7.17502 11.6667 6.16669C11.6667 5.15835 12.4917 4.33335 13.5 4.33335ZM33.6667 31.8334H4.33334V28.1667H33.6667V31.8334ZM33.6667 22.6667H4.33334V13.5C4.33334 12.4917 5.15834 11.6667 6.16667 11.6667H13.6467L10.9333 15.37C10.3283 16.195 10.5117 17.35 11.3367 17.9367C12.1433 18.5234 13.2983 18.34 13.885 17.5334L19 10.5667L24.115 17.5334C24.7017 18.34 25.8567 18.5234 26.6633 17.9367C27.4883 17.35 27.6717 16.195 27.0667 15.37L24.3533 11.6667H31.8333C32.8417 11.6667 33.6667 12.4917 33.6667 13.5V22.6667Z" fill="white"/>
</svg>
