<svg width="18" height="18" viewBox="0 0 18 18" fill="none" xmlns="http://www.w3.org/2000/svg">
<path d="M16.229 12.26L13.689 11.97C13.079 11.9 12.479 12.11 12.049 12.54L10.209 14.38C7.379 12.94 5.059 10.63 3.619 7.79001L5.469 5.94001C5.899 5.51001 6.109 4.91001 6.039 4.30001L5.749 1.78001C5.629 0.77001 4.779 0.0100098 3.759 0.0100098H2.029C0.899003 0.0100098 -0.0409969 0.95001 0.0290031 2.08001C0.559003 10.62 7.389 17.44 15.919 17.97C17.049 18.04 17.989 17.1 17.989 15.97V14.24C17.999 13.23 17.239 12.38 16.229 12.26V12.26Z" fill="#858C94"/>
</svg>
