<svg width="36" height="38" viewBox="0 0 36 38" fill="none" xmlns="http://www.w3.org/2000/svg">
<path d="M3.25 4.33335C3.25 2.29835 4.88167 0.666687 6.91667 0.666687C8.95167 0.666687 10.5833 2.29835 10.5833 4.33335C10.5833 6.36835 8.95167 8.00002 6.91667 8.00002C4.88167 8.00002 3.25 6.36835 3.25 4.33335ZM13.3333 17.075V13.5C13.3333 11.4834 11.6833 9.83335 9.66667 9.83335H4.16667C2.15 9.83335 0.5 11.4834 0.5 13.5V22.6667C0.5 23.675 1.325 24.5 2.33333 24.5H4.16667V35.5C4.16667 36.5084 4.99167 37.3334 6 37.3334H10.5833V37.1317C8.31 34.8217 6.91667 31.65 6.91667 28.1667C6.91667 23.4367 9.50167 19.2934 13.3333 17.075ZM25.25 28.1667C25.25 31.1917 22.775 33.6667 19.75 33.6667C16.725 33.6667 14.25 31.1917 14.25 28.1667C14.25 26.1317 15.3683 24.39 17 23.4367V19.4767C13.2967 20.65 10.5833 24.0784 10.5833 28.1667C10.5833 33.2267 14.69 37.3334 19.75 37.3334C24.81 37.3334 28.9167 33.2267 28.9167 28.1667H25.25ZM29.8333 22.6667H22.5V13.5C22.5 12.4917 21.675 11.6667 20.6667 11.6667C19.6583 11.6667 18.8333 12.4917 18.8333 13.5V24.5C18.8333 25.5084 19.6583 26.3334 20.6667 26.3334H28.8433L32.3633 31.6134C32.9317 32.4567 34.0683 32.6767 34.9117 32.1267C35.755 31.5584 35.975 30.4217 35.425 29.5784L31.3733 23.4917C31.025 22.9784 30.4383 22.6667 29.8333 22.6667Z" fill="url(#paint0_linear_23_163)"/>
<defs>
<linearGradient id="paint0_linear_23_163" x1="35.7267" y1="37.4224" x2="-0.910572" y2="2.22399" gradientUnits="userSpaceOnUse">
<stop stop-color="#13B156"/>
<stop offset="1" stop-color="#32CB73"/>
</linearGradient>
</defs>
</svg>
