<svg width="38" height="34" viewBox="0 0 38 34" fill="none" xmlns="http://www.w3.org/2000/svg">
<path d="M34.2167 27.2667L4.02166 28.8433C3.26999 28.88 2.60999 28.2933 2.57332 27.5417C2.53666 26.79 3.12332 26.13 3.87499 26.0933L34.0883 24.5167C34.84 24.48 35.5 25.0667 35.5367 25.8183C35.5733 26.57 34.9867 27.23 34.2167 27.2667ZM34.125 30.7133H3.87499C3.12332 30.7133 2.49999 31.3367 2.49999 32.0883C2.49999 32.84 3.12332 33.4633 3.87499 33.4633H34.125C34.8767 33.4633 35.5 32.84 35.5 32.0883C35.5 31.3367 34.8767 30.7133 34.125 30.7133ZM37.3333 4.16667V17C37.3333 19.0167 35.6833 20.6667 33.6667 20.6667H4.33332C2.31666 20.6667 0.666656 19.0167 0.666656 17V4.16667C0.666656 2.15 2.31666 0.5 4.33332 0.5H33.6667C35.6833 0.5 37.3333 2.15 37.3333 4.16667ZM32.0533 6.165C29.7617 6.66 28.0383 8.2 27.7817 10.0883C26.6083 8.75 22.7767 5.08333 15.7917 5.08333C9.48499 5.08333 5.74499 8.07167 4.22332 9.64833C3.70999 10.18 3.70999 11.005 4.22332 11.5367C5.74499 13.1133 9.48499 16.1017 15.7917 16.1017C22.7767 16.1017 26.6083 12.435 27.7817 11.0967C28.0383 12.9667 29.7617 14.5067 32.0533 15.02C32.8967 15.2033 33.6667 14.5067 33.6667 13.6633V7.54C33.6667 6.67833 32.8783 5.98167 32.0533 6.165Z" fill="white"/>
</svg>
