<svg width="200" height="193" viewBox="0 0 200 193" fill="none" xmlns="http://www.w3.org/2000/svg">
<path d="M63.6318 158L60.3123 141.3H63.351L64.8064 149.727C64.9426 150.629 65.0788 151.523 65.215 152.408C65.3512 153.293 65.4874 154.178 65.6235 155.064H65.7257C65.9129 154.178 66.0917 153.293 66.2619 152.408C66.4492 151.506 66.6364 150.612 66.8237 149.727L68.8664 141.3H71.4454L73.4882 149.727C73.6755 150.595 73.8627 151.48 74.05 152.382C74.2372 153.268 74.4245 154.161 74.6117 155.064H74.7139C74.8501 154.161 74.9777 153.268 75.0969 152.382C75.2331 151.497 75.3693 150.612 75.5055 149.727L76.9609 141.3H79.7953L76.6034 158H72.9265L70.8581 149.216C70.722 148.569 70.5858 147.931 70.4496 147.301C70.3304 146.654 70.2198 146.007 70.1176 145.36H70.0155C69.8963 146.007 69.7687 146.654 69.6325 147.301C69.5133 147.931 69.3856 148.569 69.2495 149.216L67.2322 158H63.6318ZM87.5018 158.306C86.6336 158.306 85.825 158.162 85.076 157.872C84.327 157.566 83.6716 157.132 83.1098 156.57C82.548 156.008 82.1054 155.327 81.782 154.527C81.4756 153.71 81.3224 152.782 81.3224 151.744C81.3224 150.723 81.4841 149.803 81.8075 148.986C82.131 148.169 82.5566 147.48 83.0843 146.918C83.629 146.356 84.2504 145.922 84.9483 145.616C85.6462 145.309 86.3612 145.156 87.0932 145.156C87.9444 145.156 88.6934 145.301 89.3403 145.59C89.9871 145.88 90.5234 146.288 90.949 146.816C91.3916 147.344 91.7235 147.973 91.9448 148.705C92.1661 149.437 92.2768 150.237 92.2768 151.106C92.2768 151.395 92.2597 151.667 92.2257 151.923C92.2087 152.178 92.1831 152.382 92.1491 152.536H84.1823C84.3184 153.659 84.71 154.527 85.3569 155.14C86.0208 155.736 86.8634 156.034 87.8848 156.034C88.4295 156.034 88.9317 155.957 89.3913 155.804C89.868 155.634 90.3361 155.404 90.7957 155.115L91.7916 156.953C91.1958 157.345 90.5319 157.668 89.7999 157.923C89.0679 158.179 88.3019 158.306 87.5018 158.306ZM84.1567 150.544H89.7233C89.7233 149.574 89.5105 148.816 89.0849 148.271C88.6764 147.71 88.038 147.429 87.1698 147.429C86.4208 147.429 85.7654 147.693 85.2036 148.22C84.6419 148.748 84.2929 149.522 84.1567 150.544ZM100.316 158.306C99.4648 158.306 98.6647 158.162 97.9157 157.872C97.1837 157.583 96.5454 157.157 96.0006 156.596C95.4559 156.034 95.0303 155.344 94.7239 154.527C94.4175 153.71 94.2643 152.782 94.2643 151.744C94.2643 150.706 94.4345 149.778 94.775 148.961C95.1154 148.144 95.5751 147.454 96.1538 146.892C96.7326 146.331 97.3965 145.905 98.1455 145.616C98.9116 145.309 99.7117 145.156 100.546 145.156C101.363 145.156 102.061 145.292 102.64 145.565C103.235 145.837 103.763 146.169 104.223 146.56L102.793 148.476C102.452 148.186 102.112 147.965 101.771 147.812C101.448 147.641 101.091 147.556 100.699 147.556C99.6776 147.556 98.852 147.939 98.2221 148.705C97.5923 149.454 97.2774 150.467 97.2774 151.744C97.2774 153.004 97.5838 154.017 98.1966 154.783C98.8265 155.532 99.6351 155.906 100.622 155.906C101.116 155.906 101.576 155.804 102.001 155.6C102.444 155.378 102.844 155.123 103.201 154.834L104.402 156.774C103.806 157.285 103.15 157.668 102.435 157.923C101.737 158.179 101.031 158.306 100.316 158.306ZM109.665 158.306C108.559 158.306 107.665 157.974 106.984 157.311C106.303 156.63 105.963 155.736 105.963 154.629C105.963 153.966 106.099 153.378 106.371 152.868C106.661 152.34 107.103 151.889 107.699 151.514C108.312 151.14 109.078 150.825 109.997 150.569C110.934 150.314 112.049 150.118 113.342 149.982C113.325 149.659 113.274 149.352 113.189 149.063C113.121 148.756 112.993 148.493 112.806 148.271C112.636 148.033 112.406 147.854 112.117 147.735C111.827 147.599 111.47 147.531 111.044 147.531C110.432 147.531 109.827 147.65 109.231 147.888C108.653 148.127 108.082 148.416 107.521 148.756L106.448 146.79C107.146 146.348 107.929 145.965 108.797 145.641C109.665 145.318 110.602 145.156 111.606 145.156C113.172 145.156 114.338 145.624 115.104 146.56C115.887 147.48 116.279 148.816 116.279 150.569V158H113.853L113.649 156.621H113.547C112.985 157.098 112.381 157.498 111.734 157.821C111.104 158.145 110.414 158.306 109.665 158.306ZM110.61 156.008C111.121 156.008 111.581 155.889 111.989 155.651C112.415 155.412 112.866 155.072 113.342 154.629V151.821C112.491 151.923 111.776 152.059 111.198 152.229C110.619 152.399 110.151 152.595 109.793 152.816C109.436 153.021 109.18 153.259 109.027 153.531C108.874 153.804 108.797 154.093 108.797 154.4C108.797 154.961 108.968 155.37 109.308 155.625C109.648 155.881 110.083 156.008 110.61 156.008ZM119.793 158V145.462H122.219L122.423 147.684H122.525C122.968 146.867 123.504 146.246 124.134 145.82C124.764 145.377 125.411 145.156 126.075 145.156C126.671 145.156 127.147 145.241 127.505 145.411L126.994 147.965C126.773 147.897 126.568 147.846 126.381 147.812C126.194 147.778 125.964 147.761 125.692 147.761C125.198 147.761 124.679 147.956 124.134 148.348C123.589 148.722 123.121 149.386 122.73 150.34V158H119.793ZM134.432 158.306C133.564 158.306 132.755 158.162 132.006 157.872C131.257 157.566 130.602 157.132 130.04 156.57C129.478 156.008 129.035 155.327 128.712 154.527C128.406 153.71 128.252 152.782 128.252 151.744C128.252 150.723 128.414 149.803 128.737 148.986C129.061 148.169 129.487 147.48 130.014 146.918C130.559 146.356 131.18 145.922 131.878 145.616C132.576 145.309 133.291 145.156 134.023 145.156C134.874 145.156 135.623 145.301 136.27 145.59C136.917 145.88 137.453 146.288 137.879 146.816C138.322 147.344 138.653 147.973 138.875 148.705C139.096 149.437 139.207 150.237 139.207 151.106C139.207 151.395 139.19 151.667 139.156 151.923C139.139 152.178 139.113 152.382 139.079 152.536H131.112C131.248 153.659 131.64 154.527 132.287 155.14C132.951 155.736 133.793 156.034 134.815 156.034C135.359 156.034 135.862 155.957 136.321 155.804C136.798 155.634 137.266 155.404 137.726 155.115L138.722 156.953C138.126 157.345 137.462 157.668 136.73 157.923C135.998 158.179 135.232 158.306 134.432 158.306ZM131.087 150.544H136.653C136.653 149.574 136.44 148.816 136.015 148.271C135.606 147.71 134.968 147.429 134.1 147.429C133.351 147.429 132.695 147.693 132.134 148.22C131.572 148.748 131.223 149.522 131.087 150.544Z" fill="#13B156"/>
<path d="M25.0611 175.047C20.2956 179.369 12.0224 178.993 7.78971 174.326C3.55703 169.658 2.36366 164.391 7.12917 160.069C11.8947 155.748 16.3069 156.785 20.5395 161.453C24.7722 166.12 29.8267 170.726 25.0611 175.047Z" fill="#13B156" fill-opacity="0.2"/>
<path d="M76.0991 22.5827C72.6621 25.6995 67.7391 26.5794 65.8134 24.4558C63.8876 22.3323 63.8681 19.4612 67.3051 16.3444C70.7421 13.2277 73.2566 13.2397 75.1824 15.3633C77.1081 17.4869 79.536 19.466 76.0991 22.5827Z" fill="#13B156" fill-opacity="0.2"/>
<path d="M193.583 179.778C190.146 182.895 185.223 183.775 183.298 181.651C181.372 179.528 181.353 176.657 184.789 173.54C188.226 170.423 190.741 170.435 192.667 172.559C194.592 174.682 197.02 176.661 193.583 179.778Z" fill="#13B156" fill-opacity="0.2"/>
<path d="M44.4426 103.388C45.1889 105.796 44.4925 108.423 43.0047 108.884C41.5169 109.345 40.0984 108.696 39.3521 106.288C38.6059 103.88 39.1889 102.644 40.6766 102.183C42.1644 101.722 43.6963 100.98 44.4426 103.388Z" fill="#13B156" fill-opacity="0.2"/>
<path d="M98.302 185.701C99.0482 188.109 98.3518 190.735 96.864 191.196C95.3763 191.657 93.9578 191.008 93.2115 188.6C92.4652 186.192 93.0482 184.957 94.536 184.496C96.0238 184.034 97.5557 183.293 98.302 185.701Z" fill="#13B156" fill-opacity="0.2"/>
<path d="M11.9303 50.2734C10.6187 51.6697 7.55578 49.9827 5.96805 48.395C4.38032 46.8073 2.37116 43.6806 4.6848 41.367C6.99845 39.0533 10.0954 42.2552 11.6831 43.843C13.2708 45.4307 13.2419 48.8771 11.9303 50.2734Z" fill="#13B156" fill-opacity="0.5"/>
<path d="M175.351 63.1294C174.831 56.5588 180.354 50.0825 186.829 49.57C193.305 49.0574 198.353 51.3857 198.873 57.9563C199.393 64.5269 195.765 67.4569 189.29 67.9695C182.814 68.482 175.871 69.7 175.351 63.1294Z" fill="#13B156" fill-opacity="0.6"/>
<path d="M136.999 2.08504C137.618 4.39719 136.073 7.07461 133.795 7.68517C131.516 8.29574 129.56 7.79757 128.94 5.48542C128.32 3.17328 129.423 1.88737 131.701 1.27681C133.98 0.666244 136.379 -0.227106 136.999 2.08504Z" fill="#13B156" fill-opacity="0.1"/>
<rect x="60" y="46" width="80" height="80" rx="40" fill="url(#paint0_linear_1_4165)"/>
<path d="M107.589 78.9206C109.197 78.9206 110.738 78.2821 111.875 77.1456C113.011 76.0091 113.65 74.4676 113.65 72.8603C113.65 71.253 113.011 69.7116 111.875 68.5751C110.738 67.4385 109.197 66.8 107.589 66.8C105.982 66.8 104.441 67.4385 103.304 68.5751C102.167 69.7116 101.529 71.253 101.529 72.8603C101.529 74.4676 102.167 76.0091 103.304 77.1456C104.441 78.2821 105.982 78.9206 107.589 78.9206ZM121.758 76.1644C113.08 82.358 109.083 81.2744 105.165 81.1508C102.455 81.0126 101.529 81.8732 101.529 83.7688L101.531 98.3135C101.531 110.434 121.945 106.628 114.052 86.3166C118.103 83.9919 121.509 80.4163 123.448 78.0455C124.444 76.5716 123.38 75.0275 121.758 76.1644ZM93.0446 66.8C91.4373 66.8 89.8958 67.4385 88.7593 68.5751C87.6228 69.7116 86.9843 71.253 86.9843 72.8603C86.9843 74.4676 87.6228 76.0091 88.7593 77.1456C89.8958 78.2821 91.4373 78.9206 93.0446 78.9206C94.6519 78.9206 96.1933 78.2821 97.3298 77.1456C98.4664 76.0091 99.1049 74.4676 99.1049 72.8603C99.1049 71.253 98.4664 69.7116 97.3298 68.5751C96.1933 67.4385 94.6519 66.8 93.0446 66.8ZM95.4687 81.1508C91.5513 81.2744 87.554 82.358 78.8756 76.1644C77.2539 75.0275 76.1897 76.5716 77.186 78.0431C79.1253 80.4163 82.5312 83.9894 86.5819 86.3142C78.689 106.626 99.1024 110.432 99.1024 98.3111L99.1049 83.7664C99.1049 81.8732 98.1788 81.0126 95.4687 81.1508Z" fill="white"/>
<defs>
<linearGradient id="paint0_linear_1_4165" x1="140" y1="126.194" x2="60" y2="46.1943" gradientUnits="userSpaceOnUse">
<stop stop-color="#13B156"/>
<stop offset="1" stop-color="#32CB73"/>
</linearGradient>
</defs>
</svg>
